<svg xmlns="http://www.w3.org/2000/svg" width="685" height="800" viewBox="0 0 685 800">
  <metadata><?xpacket begin="﻿" id="W5M0MpCehiHzreSzNTczkc9d"?>
<x:xmpmeta xmlns:x="adobe:ns:meta/" x:xmptk="Adobe XMP Core 5.6-c138 79.159824, 2016/09/14-01:09:01        ">
   <rdf:RDF xmlns:rdf="http://www.w3.org/1999/02/22-rdf-syntax-ns#">
      <rdf:Description rdf:about=""/>
   </rdf:RDF>
</x:xmpmeta>
                                                                                                    
                                                                                                    
                                                                                                    
                                                                                                    
                                                                                                    
                                                                                                    
                                                                                                    
                                                                                                    
                                                                                                    
                                                                                                    
                                                                                                    
                                                                                                    
                                                                                                    
                                                                                                    
                                                                                                    
                                                                                                    
                                                                                                    
                                                                                                    
                                                                                                    
                                                                                                    
                           
<?xpacket end="w"?></metadata>
<defs>
    <style>
      .cls-1 {
        fill: #00bf00;
        fill-rule: evenodd;
      }
    </style>
  </defs>
  <path class="cls-1" d="M201.235,402.834c111.112,0,201.236-90.168,201.236-201.334S312.347,0,201.235,0,0,90.167,0,201.333,90.122,402.834,201.235,402.834ZM130.936,281c1.832-6.667,3.665-13.167,5.664-19.834,2.332-7.666,4.5-8.5,11.494-4.833a112.44,112.44,0,0,0,37.982,11.333,46.806,46.806,0,0,0,24.821-3.333c14.826-6.5,17.158-23.667,4.664-34A60.8,60.8,0,0,0,201.4,222c-12.994-5.667-26.487-10-38.815-17.334-19.824-11.833-32.484-28.333-30.985-52.5,1.666-27.333,17.158-44.5,42.146-53.5,10.329-3.833,10.329-3.666,10.5-14.5v-11c0.167-8.166,1.666-9.5,9.662-9.833h7.5c17.324,0,17.324,0,17.324,17.333,0,12.167,0,12.334,12.161,14.167a108.087,108.087,0,0,1,26.821,8c4.83,2.167,6.5,5.5,5.163,10.5-2.165,7.5-4.164,15-6.662,22.333-2.333,7-4.5,8-11.162,4.834A85.605,85.605,0,0,0,202.4,132a29.292,29.292,0,0,0-11.328,2.333c-12.827,5.667-14.993,19.833-4,28.667,5.5,4.5,11.828,7.666,18.491,10.333,11.328,4.667,22.823,9.333,33.817,15.333,34.483,19.167,43.812,62.5,19.49,92a64.764,64.764,0,0,1-33.65,21.5c-5.83,1.667-8.5,4.667-8.162,10.667s0,11.833,0,17.833c0,5.334-2.666,8.167-8,8.334-6.33.166-12.827,0.166-19.157,0-5.664-.167-8.329-3.334-8.329-8.834,0-4.333,0-8.666-.167-13-0.167-9.5-.333-10-9.662-11.5-11.827-1.833-23.322-4.5-34.15-9.833C129.437,292,128.6,289.833,130.936,281ZM652.682,419.666H629.193C613.7,372.166,583.383,330,542.9,297.333a22.466,22.466,0,0,0-.666-4.667c-8.5-29.833,2-57,14.16-76.5C564.892,202.5,553.9,185,537.905,187c-35.816,4.5-60.471,17.666-77.463,32.5a75.31,75.31,0,0,0-23.655,39C411.133,364.833,315.346,444,201.235,444A240.851,240.851,0,0,1,53.973,394a235.6,235.6,0,0,0-15.16,154.667h0a2.912,2.912,0,0,0,.167.833,240.635,240.635,0,0,0,19.99,53.167C70.465,627.5,87.124,656.5,110.112,680c33.151,34.167,38.815,76.5,39.648,94.833v9h0A17.444,17.444,0,0,0,167.085,800H272.367a17.316,17.316,0,0,0,17.325-17.333v-26a361.974,361.974,0,0,0,46.811,3.166,335.86,335.86,0,0,0,36.815-2v24.834A17.315,17.315,0,0,0,390.643,800H496.258a17.317,17.317,0,0,0,17.326-17.333v-26C513.75,748,516.748,713.5,549.4,684l3.5-3c0.332-.333.666-0.5,1-0.833h0C590.212,647.833,617.033,607.5,630.86,562.5h22.156A32,32,0,0,0,685,530.5V451.667A32.505,32.505,0,0,0,652.682,419.666Zm-131.769,5.667a26.167,26.167,0,1,1,26.154-26.167A26.1,26.1,0,0,1,520.913,425.333Z"/>
</svg>
