<svg xmlns="http://www.w3.org/2000/svg" width="799" height="679" viewBox="0 0 799 679">
  <metadata><?xpacket begin="﻿" id="W5M0MpCehiHzreSzNTczkc9d"?>
<x:xmpmeta xmlns:x="adobe:ns:meta/" x:xmptk="Adobe XMP Core 5.6-c138 79.159824, 2016/09/14-01:09:01        ">
   <rdf:RDF xmlns:rdf="http://www.w3.org/1999/02/22-rdf-syntax-ns#">
      <rdf:Description rdf:about=""/>
   </rdf:RDF>
</x:xmpmeta>
                                                                                                    
                                                                                                    
                                                                                                    
                                                                                                    
                                                                                                    
                                                                                                    
                                                                                                    
                                                                                                    
                                                                                                    
                                                                                                    
                                                                                                    
                                                                                                    
                                                                                                    
                                                                                                    
                                                                                                    
                                                                                                    
                                                                                                    
                                                                                                    
                                                                                                    
                                                                                                    
                           
<?xpacket end="w"?></metadata>
<defs>
    <style>
      .cls-1 {
        fill: #00bf00;
        fill-rule: evenodd;
      }
    </style>
  </defs>
  <path class="cls-1" d="M475.912,521.561l-1.318-1.976c-10.546-16.469-9.063-36.231,3.625-51.547,1.812-2.141,3.79-4.447,6.262-7.082,7.58-7.575,19.609-17.785,36.912-17.785,10.546,0,20.928,3.787,31.474,11.692,16.478,12.186,32.957,25.032,48.612,37.219,3.131,2.306,6.1,4.776,9.227,7.082,2.308-2.635,4.615-5.435,7.086-8.07q24.471-28.162,48.612-56.323a337.688,337.688,0,0,0,13.677-95.353C680.081,152.005,527.984,0,340.458,0,153.1,0.164,1,152.17,1,339.583S153.1,679,340.623,679a337.642,337.642,0,0,0,203.016-67.356c-18.127-23.55-36.583-47.265-54.544-70.815C484.151,534.406,479.867,527.818,475.912,521.561Zm-37.736-48.089A109.188,109.188,0,0,1,381.49,509.7c-9.888,2.635-14.172,7.905-13.678,18.114,0.5,10.046,0,20.092,0,30.138,0,8.893-4.613,13.669-13.347,14-10.711.329-21.587,0.329-32.463,0-9.392-.165-13.842-5.6-14.006-14.822-0.165-7.246-.165-14.657-0.165-21.9-0.165-16.138-.659-16.8-16.314-19.267-19.939-3.129-39.384-7.741-57.675-16.469-14.336-6.917-15.819-10.54-11.7-25.527,3.13-11.2,6.1-22.4,9.557-33.431,3.955-12.845,7.416-14.492,19.28-8.234,20.1,10.54,41.526,16.3,63.936,19.1,14.5,1.811,28.509.329,42.021-5.435,24.882-10.869,28.837-39.854,7.744-57.147-7.25-5.928-15.325-10.209-23.893-14-21.917-9.552-44.657-16.963-65.42-29.315-33.616-20.091-54.873-47.594-52.4-88.436,2.8-46.112,28.838-74.932,71.187-90.248,17.468-6.423,17.468-6.093,17.632-24.374V124.009c0.33-13.834,2.637-16.14,16.314-16.469,4.284-.165,8.569,0,12.689,0,29.166,0,29.166,0,29.332,29.149,0.165,20.586,0,20.751,20.6,23.88a179.714,179.714,0,0,1,45.315,13.5c8.075,3.458,11.042,9.222,8.569,17.621-3.625,12.516-7.085,25.2-11.04,37.714-3.79,11.857-7.581,13.5-18.95,8.069a142.505,142.505,0,0,0-71.846-14.163c-6.592.33-13.019,1.318-19.116,3.953-21.752,9.552-25.212,33.431-6.756,48.252,9.393,7.411,20.1,12.846,31.145,17.457,19.279,7.9,38.559,15.646,56.85,25.691C463.388,350.617,479.208,423.573,438.176,473.472ZM792.135,375.32c-7.91-6.423-13.348-9.717-18.291-9.717-5.6,0-10.546,4.282-18.126,13.011q-57.346,66.45-114.691,132.737c-8.569,9.881-17.138,19.761-26.036,29.972-4.45-3.459-8.569-6.588-12.689-9.881-22.575-17.456-44.821-35.078-67.562-52.041-5.108-3.788-9.392-5.764-13.347-5.764-4.944,0-9.558,2.964-15.16,8.728a65.728,65.728,0,0,0-4.45,5.106c-4.119,4.94-4.779,10.21-1.318,15.645,4.12,6.423,8.239,13.01,12.853,19.1q45.234,58.792,90.632,117.421c3.625,4.776,7.91,7.246,12.194,7.246,4.614,0,9.228-2.8,13.183-8.564q83.3-119.067,166.269-237.971C804,388.329,803.175,384.377,792.135,375.32Z" transform="translate(-1)"/>
</svg>
