<svg xmlns="http://www.w3.org/2000/svg" width="97" height="92" viewBox="0 0 97 92">
  <metadata><?xpacket begin="﻿" id="W5M0MpCehiHzreSzNTczkc9d"?>
<x:xmpmeta xmlns:x="adobe:ns:meta/" x:xmptk="Adobe XMP Core 5.6-c138 79.159824, 2016/09/14-01:09:01        ">
   <rdf:RDF xmlns:rdf="http://www.w3.org/1999/02/22-rdf-syntax-ns#">
      <rdf:Description rdf:about=""/>
   </rdf:RDF>
</x:xmpmeta>
                                                                                                    
                                                                                                    
                                                                                                    
                                                                                                    
                                                                                                    
                                                                                                    
                                                                                                    
                                                                                                    
                                                                                                    
                                                                                                    
                                                                                                    
                                                                                                    
                                                                                                    
                                                                                                    
                                                                                                    
                                                                                                    
                                                                                                    
                                                                                                    
                                                                                                    
                                                                                                    
                           
<?xpacket end="w"?></metadata>
<defs>
    <style>
      .cls-1 {
        fill: #00bf00;
        fill-rule: evenodd;
      }
    </style>
  </defs>
  <path id="Forma_1" data-name="Forma 1" class="cls-1" d="M98.408,55.884L81.089,88.635a6.85,6.85,0,0,1-5.105,3.351L6.531,92A5.526,5.526,0,0,1,1,86.474L1.012,32.584A5.527,5.527,0,0,1,6.535,27.06l5.078,0v4.708h-3.4A2.506,2.506,0,0,0,5.707,34.27l0,50.518a2.508,2.508,0,0,0,2.509,2.507H11.7L28.114,54.115c0.927-1.853,2.68-3.35,4.532-3.35h40.2l0.013-13.353a5.144,5.144,0,0,1,4.7,5.1v8.249H95.99C98.167,50.787,100,52.938,98.408,55.884ZM14.815,70.592c-0.15-16.514,0-66.061,0-66.061A4.537,4.537,0,0,1,19.349,0H55.658a2.076,2.076,0,0,1,1.528.671L68.925,13.415a2.08,2.08,0,0,1,.549,1.407V47.835H65.666V17.672a0.947,0.947,0,0,0-.947-0.946H55.734a1.906,1.906,0,0,1-1.906-1.9V4.751a0.947,0.947,0,0,0-.947-0.946H19.352a0.727,0.727,0,0,0-.727.725V66.439L15.711,72.33S14.83,72.265,14.815,70.592Zm42.825-57.67H63.3L57.641,6.779v6.143ZM59.7,20.6H24.612a2.341,2.341,0,1,0,0,4.683H59.7A2.341,2.341,0,1,0,59.7,20.6Zm2.344,15.976a2.345,2.345,0,0,0-2.344-2.34H24.612a2.34,2.34,0,1,0,0,4.679H59.7A2.345,2.345,0,0,0,62.048,36.578ZM22.269,50.306a2.342,2.342,0,0,0,2.342,2.339h0.841A7.023,7.023,0,0,1,30.6,47.965H24.611A2.344,2.344,0,0,0,22.269,50.306Z" transform="translate(-1)"/>
</svg>
